<svg xmlns="http://www.w3.org/2000/svg" width="222" height="31" viewBox="0 0 222 31" fill="none">
<path d="M5.625 30H0.898438L4.02344 3.63281H10L14.0625 19.7266C14.1406 20.013 14.3359 21.0677 14.6484 22.8906C14.9349 21.3802 15.1823 20.2604 15.3906 19.5312L19.4922 3.63281H25.2734L28.3203 30H23.2422L21.9531 14.8438C21.875 14.0885 21.7839 12.7214 21.6797 10.7422C21.3411 12.3047 21.0026 13.7109 20.6641 14.9609L16.7578 29.0234L11.9531 29.1797L8.24219 14.7656C8.0599 14.0885 7.77344 12.8125 7.38281 10.9375C7.30469 11.5104 7.17448 12.8255 6.99219 14.8828L5.625 30ZM44.7656 30.5859C42.6562 30.5599 41.3411 29.6354 40.8203 27.8125C40.7161 28.0208 40.5729 28.2292 40.3906 28.4375C39.2969 29.8698 37.7865 30.5859 35.8594 30.5859C34.7135 30.5859 33.6589 30.2995 32.6953 29.7266C30.8203 28.6328 29.8828 26.875 29.8828 24.4531C29.8828 23.2292 30.1823 22.1484 30.7812 21.2109C32.1615 19.1016 34.6875 18.0469 38.3594 18.0469C38.9323 18.0469 39.4141 18.0599 39.8047 18.0859V17.0703C39.7786 15.1693 38.8151 14.1927 36.9141 14.1406C35.6901 14.1406 34.1016 14.6615 32.1484 15.7031L30.4688 12.0312C30.5469 11.9792 30.625 11.9271 30.7031 11.875C33.0208 10.5729 35.4948 9.92188 38.125 9.92188C39.1667 9.92188 40.1172 10.0781 40.9766 10.3906C43.5807 11.3281 44.8828 13.4896 44.8828 16.875V24.8047C44.8828 25.013 44.8958 25.2083 44.9219 25.3906C45.026 26.224 45.4688 26.6406 46.25 26.6406C46.4583 26.6406 46.6406 26.6276 46.7969 26.6016L46.9531 30.3125C46.25 30.4948 45.5208 30.5859 44.7656 30.5859ZM37.0312 26.5234C37.4219 26.5234 37.7734 26.4714 38.0859 26.3672C39.2318 26.0026 39.8047 24.6615 39.8047 22.3438V21.4062C39.5703 21.3802 39.1927 21.3672 38.6719 21.3672C36.3802 21.4193 35.1562 22.4479 35 24.4531C35 24.6875 35.0391 24.9219 35.1172 25.1562C35.4036 26.0677 36.0417 26.5234 37.0312 26.5234ZM61.0938 28.8672C59.401 29.987 57.7083 30.5599 56.0156 30.5859C55.7552 30.5859 55.4948 30.5729 55.2344 30.5469C52.1354 30.2344 50.5859 28.0859 50.5859 24.1016V14.1797H48.125V10.4688H50.5859V5.19531H55.6641V10.4688H59.6875V14.1797H55.6641V23.6719C55.6901 25.4948 56.3542 26.4323 57.6562 26.4844C58.2031 26.4844 58.8932 26.263 59.7266 25.8203L61.0938 28.8672ZM68.3984 30H63.3203V10.2734H68.0859L68.2422 13.5938C69.3359 11.1458 71.1068 9.90885 73.5547 9.88281C73.9453 9.88281 74.2578 9.89583 74.4922 9.92188L73.9453 15.0391C73.2682 14.7526 72.6432 14.6094 72.0703 14.6094C71.5755 14.6094 71.0938 14.7266 70.625 14.9609C69.1406 15.7161 68.3984 17.4219 68.3984 20.0781V30ZM81.6797 30H76.6016V10.4688H81.6797V30ZM85.3516 3.86719L77.3828 8.4375L75.4297 5.42969L82.8906 0.195312L85.3516 3.86719ZM100.078 28.4766C97.7083 29.8568 95.4557 30.5599 93.3203 30.5859C91.7578 30.5859 90.3646 30.2474 89.1406 29.5703C86.3021 27.9818 84.8828 24.8307 84.8828 20.1172C84.8828 17.6172 85.3906 15.4948 86.4062 13.75C87.9427 11.1979 90.2734 9.92188 93.3984 9.92188C93.763 9.92188 94.1276 9.94792 94.4922 10C97.3307 10.3125 99.3099 12.0964 100.43 15.3516L96.25 16.9141C96.1458 16.6536 96.0547 16.4062 95.9766 16.1719C95.3516 14.7396 94.5052 14.0234 93.4375 14.0234C91.224 14.0495 90.1042 16.1068 90.0781 20.1953C90.1042 24.2318 91.5495 26.276 94.4141 26.3281C95.5339 26.3281 96.9531 25.8984 98.6719 25.0391L100.078 28.4766ZM118.789 30.5859C116.315 30.5599 114.948 29.3099 114.688 26.8359C114.453 27.2266 114.18 27.6042 113.867 27.9688C112.461 29.6354 110.781 30.4688 108.828 30.4688C107.995 30.4688 107.214 30.3516 106.484 30.1172C103.932 29.2839 102.656 27.1484 102.656 23.7109V10.4688H107.734V23.125C107.76 25.3646 108.607 26.5104 110.273 26.5625C110.664 26.5625 111.042 26.4844 111.406 26.3281C113.021 25.651 113.828 23.6849 113.828 20.4297V10.4688H118.906V24.8047C118.906 25.013 118.919 25.2083 118.945 25.3906C119.049 26.224 119.492 26.6406 120.273 26.6406C120.482 26.6406 120.664 26.6276 120.82 26.6016L120.977 30.3125C120.273 30.4948 119.544 30.5859 118.789 30.5859ZM128.867 30.5859C128.685 30.5859 128.503 30.5859 128.32 30.5859C125.117 30.3776 123.516 28.4505 123.516 24.8047V1.67969H128.594V24.3359C128.594 24.4661 128.594 24.5964 128.594 24.7266C128.672 25.8984 129.193 26.4844 130.156 26.4844C130.469 26.4844 130.885 26.4193 131.406 26.2891L132.305 30.0781C131.055 30.4167 129.909 30.5859 128.867 30.5859ZM147.773 30.5859C145.664 30.5599 144.349 29.6354 143.828 27.8125C143.724 28.0208 143.581 28.2292 143.398 28.4375C142.305 29.8698 140.794 30.5859 138.867 30.5859C137.721 30.5859 136.667 30.2995 135.703 29.7266C133.828 28.6328 132.891 26.875 132.891 24.4531C132.891 23.2292 133.19 22.1484 133.789 21.2109C135.169 19.1016 137.695 18.0469 141.367 18.0469C141.94 18.0469 142.422 18.0599 142.812 18.0859V17.0703C142.786 15.1693 141.823 14.1927 139.922 14.1406C138.698 14.1406 137.109 14.6615 135.156 15.7031L133.477 12.0312C133.555 11.9792 133.633 11.9271 133.711 11.875C136.029 10.5729 138.503 9.92188 141.133 9.92188C142.174 9.92188 143.125 10.0781 143.984 10.3906C146.589 11.3281 147.891 13.4896 147.891 16.875V24.8047C147.891 25.013 147.904 25.2083 147.93 25.3906C148.034 26.224 148.477 26.6406 149.258 26.6406C149.466 26.6406 149.648 26.6276 149.805 26.6016L149.961 30.3125C149.258 30.4948 148.529 30.5859 147.773 30.5859ZM140.039 26.5234C140.43 26.5234 140.781 26.4714 141.094 26.3672C142.24 26.0026 142.812 24.6615 142.812 22.3438V21.4062C142.578 21.3802 142.201 21.3672 141.68 21.3672C139.388 21.4193 138.164 22.4479 138.008 24.4531C138.008 24.6875 138.047 24.9219 138.125 25.1562C138.411 26.0677 139.049 26.5234 140.039 26.5234ZM164.844 24.1797C164.844 25.7161 164.375 27.0443 163.438 28.1641C162.057 29.7786 160.078 30.5859 157.5 30.5859C154.974 30.5859 152.747 29.8047 150.82 28.2422L152.656 25.2734C154.062 26.1849 155.586 26.6536 157.227 26.6797C157.357 26.6797 157.5 26.6667 157.656 26.6406C159.089 26.5104 159.805 25.8203 159.805 24.5703C159.805 24.2578 159.714 23.9453 159.531 23.6328C159.193 23.138 158.268 22.5651 156.758 21.9141C155.898 21.5234 155.247 21.2109 154.805 20.9766C152.617 19.7526 151.523 17.9818 151.523 15.6641C151.523 14.2578 152.044 13.0208 153.086 11.9531C154.466 10.5729 156.276 9.88281 158.516 9.88281C158.828 9.88281 159.141 9.89583 159.453 9.92188C162.109 10.1823 163.919 11.3672 164.883 13.4766L161.68 15.3906C161.628 15.3125 161.562 15.2083 161.484 15.0781C160.807 14.1406 159.883 13.6719 158.711 13.6719C158.529 13.6719 158.333 13.6979 158.125 13.75C157.083 13.9583 156.562 14.5703 156.562 15.5859C156.562 15.8724 156.654 16.1589 156.836 16.4453C157.148 16.9141 158.073 17.487 159.609 18.1641C160.469 18.5547 161.107 18.8672 161.523 19.1016C163.737 20.2995 164.844 21.9922 164.844 24.1797ZM200.742 16.875C200.742 20 200.195 22.6953 199.102 24.9609C197.227 28.7109 194.141 30.5859 189.844 30.5859C187.24 30.5859 185.052 29.8828 183.281 28.4766C180.391 26.1328 178.945 22.2786 178.945 16.9141C178.945 13.6068 179.57 10.7812 180.82 8.4375C182.747 4.84375 185.781 3.04688 189.922 3.04688C192.448 3.04688 194.57 3.72396 196.289 5.07812C199.258 7.39583 200.742 11.3281 200.742 16.875ZM184.414 16.875C184.414 18.3073 184.531 19.6224 184.766 20.8203C185.521 24.3359 187.214 26.0938 189.844 26.0938C190.781 26.0938 191.628 25.8464 192.383 25.3516C194.31 23.9714 195.273 21.1589 195.273 16.9141C195.273 15.4297 195.143 14.0755 194.883 12.8516C194.154 9.3099 192.5 7.53906 189.922 7.53906C188.906 7.53906 187.995 7.83854 187.188 8.4375C185.339 9.89583 184.414 12.7083 184.414 16.875ZM221.562 26.6406L221.758 30.3125C221.029 30.4688 220.339 30.5469 219.688 30.5469C216.693 30.4948 215.156 28.8802 215.078 25.7031V17.2656C215.078 16.849 215.039 16.4453 214.961 16.0547C214.648 14.6224 213.919 13.9062 212.773 13.9062C212.383 13.9062 212.005 13.9844 211.641 14.1406C210.026 14.8958 209.219 16.862 209.219 20.0391V30H204.141V10.4688H209.023L209.102 12.9297C210.456 10.9245 212.24 9.90885 214.453 9.88281C215.417 9.88281 216.315 10.1042 217.148 10.5469C219.154 11.6406 220.156 13.7109 220.156 16.7578V25.4297C220.182 26.2891 220.651 26.6927 221.562 26.6406Z" fill="#0F0050"/>
</svg>